<svg width="167" height="148" viewBox="0 0 167 148" fill="none" xmlns="http://www.w3.org/2000/svg">
<g clip-path="url(#clip0_579_2938)">
<path d="M125.04 25.0049C124.947 24.8558 124.886 24.6894 124.859 24.5157C124.833 24.3421 124.842 24.1649 124.887 23.995C124.931 23.8251 125.009 23.666 125.117 23.5274C125.225 23.3888 125.36 23.2736 125.514 23.1889C125.817 23.0353 126.167 23.0027 126.494 23.0976C126.82 23.1926 127.098 23.408 127.272 23.7004L128.194 25.1826L127.748 19.9733C127.653 19.3053 127.959 18.4257 128.714 18.3666C129.321 18.2785 129.816 17.4622 130.543 17.8212C130.549 17.8193 136.249 22.3134 136.339 22.9322L136.69 31.1782C137.072 33.8039 128.156 33.2776 128.156 33.2776L125.04 25.0049Z" fill="#E98862"/>
<g opacity="0.1">
<path d="M125.04 25.0049C124.947 24.8558 124.886 24.6894 124.859 24.5157C124.833 24.3421 124.842 24.1649 124.887 23.995C124.931 23.8251 125.009 23.666 125.117 23.5274C125.225 23.3888 125.36 23.2736 125.514 23.1889C125.817 23.0353 126.167 23.0027 126.494 23.0976C126.82 23.1926 127.098 23.408 127.272 23.7004L128.194 25.1826L127.748 19.9733C127.653 19.3053 127.959 18.4257 128.714 18.3666C129.321 18.2785 129.816 17.4622 130.543 17.8212C130.549 17.8193 136.249 22.3134 136.339 22.9322L136.69 31.1782C137.072 33.8039 128.156 33.2776 128.156 33.2776L125.04 25.0049Z" fill="#0C0C0C"/>
</g>
<path d="M64.1052 65.4547C64.1052 65.4547 63.5934 73.1403 61.8655 75.9277C56.8913 83.955 55.4502 92.9851 60.4315 97.7032C65.4128 102.421 97.1853 102.487 99.5924 91.6361C101.619 82.5004 97.27 81.518 96.2119 73.9822C95.7332 70.5722 94.4161 63.4219 94.4161 63.4219" fill="#0A0A0A"/>
<path d="M91.3685 90.0445C91.3135 90.0374 90.7051 100.143 78.9733 99.262C70.8515 98.6531 67.9557 90.0295 67.7686 90.0295C68.6444 89.8432 70.1189 89.5724 70.5078 89.3648C71.7868 88.6771 73.3685 87.9616 73.7812 85.4762C74.0196 84.0448 73.6157 76.7156 73.74 75.2656L86.2067 78.0502C86.0325 81.111 84.8133 88.2071 89.0866 89.4629C89.7984 89.6721 90.5644 89.863 91.3685 90.0445Z" fill="#E98862"/>
<path opacity="0.5" d="M86.3823 86.5641C86.187 85.9343 86.0612 85.285 86.0073 84.6279C85.8702 83.1282 85.8975 81.618 86.0888 80.1242C83.5551 79.7819 81.1682 78.7354 79.1991 77.1035C78.9676 77.959 77.6946 81.6973 78.0472 82.5104C78.7128 84.0472 81.8436 86.5641 86.3823 86.5641Z" fill="#0C0C0C"/>
<path d="M84.7701 83.4148C79.8548 83.8919 73.4953 81.9233 72.1779 75.3732L70.9892 69.463C69.6716 62.913 72.0415 56.9107 78.2046 55.6692C84.3677 54.4286 90.042 58.8101 91.3594 65.3602L91.8858 67.9768C92.3912 70.49 93.5395 82.5658 84.7701 83.4148Z" fill="#E98862"/>
<path d="M88.2665 75.5823C86.6695 76.395 84.8474 76.6519 83.0882 76.3126C83.0273 76.301 82.9643 76.307 82.9067 76.33C82.8491 76.3529 82.7992 76.3918 82.7629 76.4421C82.7266 76.4924 82.7054 76.552 82.7017 76.614C82.6981 76.6759 82.7122 76.7377 82.7423 76.7919C83.2668 77.7168 84.5107 79.2968 86.6446 78.6527C88.0228 78.2366 88.5437 76.8179 88.7368 75.9404C88.75 75.8798 88.7455 75.8166 88.7241 75.7583C88.7026 75.7001 88.6649 75.6491 88.6156 75.6115C88.5662 75.5739 88.5071 75.5512 88.4453 75.5461C88.3834 75.5409 88.3214 75.5535 88.2665 75.5823Z" fill="white"/>
<path d="M88.3664 68.4742C88.7926 68.4742 89.1381 68.1284 89.1381 67.7019C89.1381 67.2754 88.7926 66.9297 88.3664 66.9297C87.9402 66.9297 87.5947 67.2754 87.5947 67.7019C87.5947 68.1284 87.9402 68.4742 88.3664 68.4742Z" fill="#0C0C0C"/>
<path d="M80.9509 69.7749C81.3771 69.7749 81.7226 69.4292 81.7226 69.0027C81.7226 68.5762 81.3771 68.2305 80.9509 68.2305C80.5247 68.2305 80.1792 68.5762 80.1792 69.0027C80.1792 69.4292 80.5247 69.7749 80.9509 69.7749Z" fill="#0C0C0C"/>
<path opacity="0.1" d="M81.6457 74.8325C82.4546 74.7359 83.0529 74.1764 82.9821 73.5827C82.9113 72.989 82.1983 72.586 81.3894 72.6826C80.5805 72.7791 79.9822 73.3387 80.053 73.9324C80.1238 74.5261 80.8369 74.9291 81.6457 74.8325Z" fill="#0C0C0C"/>
<path opacity="0.1" d="M90.1931 72.4588C90.2646 73.0517 90.9784 73.4541 91.7875 73.3587C91.9273 73.3419 92.0649 73.3106 92.1982 73.2654C92.2359 72.5585 92.2381 71.8784 92.2173 71.2488C91.9927 71.1927 91.7596 71.179 91.53 71.2085C90.7209 71.3042 90.123 71.8634 90.1931 72.4588Z" fill="#0C0C0C"/>
<path opacity="0.5" d="M86.6185 74.2916L86.6306 74.2897C86.8804 74.2376 87.1272 74.1718 87.3697 74.0924C87.7316 73.9712 88.2041 73.7723 88.1392 73.4447C88.0644 73.0714 86.232 69.2505 86.0239 68.8166C86.0057 68.7786 85.9731 68.7494 85.9334 68.7355C85.8937 68.7216 85.85 68.724 85.8121 68.7423C85.7742 68.7605 85.745 68.7931 85.7311 68.8328C85.7172 68.8726 85.7196 68.9163 85.7378 68.9542C86.5191 70.5815 87.7773 73.2567 87.8279 73.5082C87.7883 73.6253 87.188 73.8541 86.5684 73.9791C86.5274 73.9864 86.4909 74.0094 86.4668 74.0434C86.4427 74.0773 86.4328 74.1194 86.4394 74.1605C86.446 74.2017 86.4685 74.2385 86.5021 74.2632C86.5356 74.2879 86.5775 74.2983 86.6187 74.2924L86.6185 74.2916Z" fill="#0C0C0C"/>
<path d="M66.0719 71.5856L71.597 70.5056C75.7706 68.759 76.9545 61.4802 76.9545 61.4802C76.9545 61.4802 82.1056 66.3889 94.416 63.4207C94.416 63.4207 91.7419 46.2234 73.5645 51.4435C67.7032 53.1266 63.5518 59.105 64.1692 67.0235C64.6019 72.5727 66.0719 71.5856 66.0719 71.5856Z" fill="#0A0A0A"/>
<path d="M72.962 77.2935C71.0891 77.6707 69.1674 75.9714 68.79 74.0967C68.4126 72.2221 69.7236 70.883 71.5965 70.5059L72.8142 71.5672L74.5717 76.9686L72.962 77.2935Z" fill="#E98862"/>
<path d="M87.3515 65.7694C87.8201 65.4378 88.3682 65.2363 88.9399 65.1857C89.2268 65.1583 89.5161 65.1744 89.7982 65.2334C90.083 65.2916 90.3594 65.3853 90.6209 65.5123L90.6292 65.5161C90.6582 65.5289 90.691 65.5298 90.7207 65.5187C90.7504 65.5076 90.7745 65.4854 90.788 65.4567C90.8015 65.428 90.8032 65.3951 90.7928 65.3652C90.7824 65.3352 90.7608 65.3105 90.7324 65.2964C90.4554 65.1499 90.1609 65.0389 89.8561 64.9662C89.5492 64.8915 89.2328 64.8635 88.9175 64.8829C88.279 64.9184 87.6616 65.1243 87.1295 65.4794C87.0896 65.5066 87.062 65.5485 87.053 65.5961C87.044 65.6436 87.0542 65.6927 87.0814 65.7327C87.1086 65.7727 87.1505 65.8002 87.198 65.8093C87.2455 65.8183 87.2946 65.8081 87.3345 65.7809L87.3388 65.7778L87.3515 65.7694Z" fill="#0C0C0C"/>
<path d="M82.3046 66.467C81.6772 66.3423 81.0278 66.3883 80.4241 66.6002C80.1257 66.703 79.8445 66.8501 79.5897 67.0365C79.336 67.2204 79.1064 67.4356 78.9065 67.677C78.8853 67.7009 78.8745 67.7322 78.8761 67.764C78.8778 67.7959 78.892 67.8258 78.9155 67.8473C78.9391 67.8688 78.9701 67.8801 79.002 67.8789C79.0338 67.8777 79.0639 67.8639 79.0858 67.8407L79.0922 67.834C79.2851 67.6165 79.5045 67.4241 79.7454 67.2615C79.9837 67.0987 80.2453 66.973 80.5212 66.8886C81.0688 66.7167 81.6521 66.6929 82.2119 66.8196L82.2257 66.823C82.2726 66.8344 82.3222 66.8266 82.3634 66.8015C82.4047 66.7763 82.4342 66.7358 82.4456 66.6888C82.457 66.6418 82.4493 66.5922 82.4241 66.551C82.399 66.5097 82.3585 66.4801 82.3115 66.4687L82.3046 66.467Z" fill="#0C0C0C"/>
<path d="M71.6006 70.4144C75.3148 69.0308 76.5471 66.4643 76.9269 64.5543C77.1725 63.2805 77.1495 61.9695 76.8594 60.7051L76.7445 60.7366C77.0301 61.9846 77.0521 63.2785 76.8091 64.5355C76.4346 66.4142 75.2194 68.9396 71.5591 70.3028L71.6006 70.4144Z" fill="#0C0C0C"/>
<path d="M29.316 42.4539L26.8771 34.6559C26.8235 34.4845 26.7349 34.3263 26.6168 34.1911C26.4987 34.0559 26.3538 33.9468 26.1913 33.8708C26.0288 33.7947 25.8522 33.7534 25.6728 33.7494C25.4935 33.7453 25.3152 33.7787 25.1495 33.8474C24.8474 33.9837 24.6066 34.2274 24.4739 34.5313C24.3412 34.8352 24.326 35.1776 24.4312 35.4921L24.9542 37.1642L20.8976 32.6612C20.4554 32.1526 19.5865 31.8117 19.0503 32.3459C18.8301 32.5378 18.6815 32.7988 18.6286 33.0862C18.5758 33.3736 18.6218 33.6704 18.7592 33.9283C18.7533 33.9312 18.7478 33.9348 18.7428 33.939C18.7395 33.9428 18.7365 33.9467 18.7337 33.9509L18.0519 33.1668C17.9255 33.0215 17.7683 32.9064 17.5918 32.8297C17.4153 32.753 17.2239 32.7167 17.0315 32.7234C16.8392 32.7301 16.6508 32.7797 16.4801 32.8685C16.3093 32.9574 16.1605 33.0832 16.0446 33.2369C15.8668 33.4825 15.7787 33.7817 15.795 34.0845C15.8113 34.3874 15.9311 34.6754 16.1342 34.9004L16.4243 35.2344C16.4187 35.2473 16.4153 35.2611 16.4143 35.2752C16.166 35.0952 15.8617 35.0095 15.556 35.0334C15.2502 35.0573 14.963 35.1893 14.7455 35.4057C14.5147 35.6494 14.3841 35.9713 14.38 36.3071C14.3758 36.643 14.4984 36.968 14.7231 37.2174L15.4441 38.0461C15.4256 38.0417 15.4063 38.0416 15.3879 38.046C15.3694 38.0504 15.3522 38.0591 15.3377 38.0714C15.3213 38.0869 15.3098 38.1069 15.3046 38.1289C15.0389 38.0302 14.7483 38.0216 14.4772 38.1043C14.2062 38.187 13.9698 38.3565 13.8044 38.5867C13.6355 38.8321 13.5544 39.1274 13.5742 39.4247C13.594 39.722 13.7135 40.0039 13.9133 40.2247L19.9956 47.2178C20.8466 48.1959 21.97 48.8975 23.222 49.2326C24.474 49.5678 25.7974 49.5213 27.0228 49.0991C28.0794 48.7348 28.9524 47.9726 29.4564 46.9745C29.9603 45.9763 30.0555 44.8208 29.7217 43.7536L29.316 42.4539Z" fill="#E98862"/>
<g opacity="0.2">
<path d="M22.7521 38.4053C22.7285 38.4258 22.6977 38.4362 22.6665 38.4342C22.6353 38.4322 22.6061 38.418 22.5853 38.3946L18.7337 34.1074C18.7126 34.0838 18.7016 34.0528 18.7033 34.0212C18.705 33.9896 18.7191 33.96 18.7426 33.9388C18.7662 33.9176 18.7971 33.9067 18.8287 33.9084C18.8603 33.91 18.8899 33.9242 18.9111 33.9478L22.7631 38.235C22.7843 38.2585 22.7952 38.2895 22.7935 38.3211C22.7919 38.3526 22.7778 38.3823 22.7543 38.4034L22.7521 38.4053Z" fill="#0C0C0C"/>
</g>
<g opacity="0.2">
<path d="M20.9094 40.1569C20.8857 40.1773 20.855 40.1877 20.8237 40.1857C20.7925 40.1837 20.7633 40.1695 20.7425 40.1461L16.4442 35.3614C16.423 35.3379 16.4121 35.307 16.4137 35.2754C16.4154 35.2438 16.4295 35.2142 16.453 35.193C16.477 35.1728 16.5078 35.1626 16.5391 35.1642C16.5704 35.1659 16.5998 35.1795 16.6215 35.2021L20.9203 39.9865C20.9415 40.01 20.9524 40.041 20.9508 40.0726C20.9491 40.1041 20.935 40.1338 20.9115 40.1549L20.9094 40.1569Z" fill="#0C0C0C"/>
</g>
<g opacity="0.2">
<path d="M18.9244 42.0668C18.9008 42.0872 18.87 42.0975 18.8388 42.0955C18.8075 42.0934 18.7784 42.0792 18.7576 42.0558L15.3289 38.2402C15.3078 38.2166 15.2968 38.1856 15.2985 38.154C15.3002 38.1224 15.3143 38.0928 15.3379 38.0716C15.3614 38.0505 15.3923 38.0395 15.4239 38.0412C15.4555 38.0429 15.4851 38.057 15.5063 38.0806L18.9356 41.8976C18.9568 41.9211 18.9677 41.9521 18.966 41.9837C18.9643 42.0153 18.9501 42.0449 18.9266 42.066L18.9244 42.0668Z" fill="#0C0C0C"/>
</g>
<path d="M124.161 28.3418L116.355 66.0513L89.7734 92.9224L103.73 105.929L130.085 75.8185L130.243 75.6405C131.172 74.5706 131.82 73.2857 132.128 71.9022L141.076 31.9938L124.161 28.3418Z" fill="#3B9C2B"/>
<path d="M78.5761 96.7479C70.4492 96.3645 70.1071 89.4609 70.1071 89.4609C70.1071 89.4609 66.08 89.7212 63.4031 90.0838C59.0201 90.6771 56.1291 92.1644 53.828 94.4668C51.6877 96.6088 52.2949 103.291 52.2949 103.291L54.4431 147.998H103.494L105.813 103.537C105.813 103.537 108.448 97.8947 103.969 93.1525C100.721 89.7143 92.3358 89.4609 88.9601 89.4609C88.905 89.4609 89.6447 97.2701 78.5761 96.7479Z" fill="#3B9C2B"/>
<path d="M40.3916 73.532L31.6028 42.0781L14.9834 46.9005L25.1432 80.7641C25.6079 82.2989 26.4901 83.6741 27.6912 84.7358L27.8581 84.882L54.6276 108.428L66.7208 93.6705L40.3916 73.532Z" fill="#3B9C2B"/>
<path d="M130.87 24.9295C130.734 24.743 130.663 24.5171 130.668 24.2864C130.672 24.0556 130.751 23.8326 130.894 23.6513C130.878 23.6422 130.832 23.6317 130.849 23.6036L130.055 23.99C129.824 24.109 129.557 24.1402 129.305 24.0778C129.052 24.0153 128.831 23.8635 128.681 23.6503C128.541 23.4351 128.485 23.1752 128.525 22.9212C128.565 22.6671 128.698 22.4369 128.897 22.2752C128.888 22.2721 128.882 22.2614 128.874 22.2552L128.547 22.4141C128.329 22.5253 128.079 22.5575 127.839 22.5053C127.6 22.4532 127.385 22.3198 127.233 22.1278C127.14 22.0054 127.075 21.8639 127.043 21.7134C127.011 21.5629 127.013 21.4072 127.049 21.2575C127.084 21.1078 127.153 20.9679 127.249 20.8479C127.345 20.7278 127.466 20.6306 127.605 20.5633L128.357 20.1966C128.355 20.193 128.35 20.1926 128.347 20.1883C128.345 20.184 128.347 20.1771 128.346 20.1716C128.117 20.2251 127.877 20.1994 127.665 20.0985C127.453 19.9977 127.281 19.8277 127.178 19.6164C126.876 19.0878 127.322 18.4854 127.809 18.2485L129.4 17.6211C129.645 17.5244 129.911 17.4899 130.173 17.5207C130.435 17.5516 130.685 17.6468 130.902 17.7978C132.776 19.1038 137.59 22.6314 136.037 23.3879L132.212 25.2501C131.985 25.3535 131.729 25.3782 131.486 25.3201C131.243 25.262 131.026 25.1246 130.87 24.9295Z" fill="#E98862"/>
<path d="M13.215 147.999H152.947C153.01 147.999 153.071 147.973 153.116 147.929C153.16 147.884 153.185 147.823 153.185 147.76C153.185 147.697 153.16 147.636 153.116 147.591C153.071 147.547 153.01 147.521 152.947 147.521H13.215C13.1517 147.521 13.0911 147.547 13.0464 147.591C13.0017 147.636 12.9766 147.697 12.9766 147.76C12.9766 147.823 13.0017 147.884 13.0464 147.929C13.0911 147.973 13.1517 147.999 13.215 147.999Z" fill="#292A2E"/>
<path d="M7.40424 95.9556L5.62793 96.6504L8.13342 103.065L9.90974 102.37L7.40424 95.9556Z" fill="#3B9C2B"/>
<path d="M151.487 76.3091L146.896 81.4395L148.316 82.7127L152.908 77.5824L151.487 76.3091Z" fill="#3B9C2B"/>
<path d="M130.436 99.2711L129.293 100.799L134.801 104.928L135.945 103.4L130.436 99.2711Z" fill="#0CBC8B"/>
<path d="M47.6549 44.7332L42.6426 49.4531L43.9496 50.843L48.9619 46.1231L47.6549 44.7332Z" fill="#3B9C2B"/>
<path d="M103.172 36.7265L101.519 37.6777L104.949 43.6487L106.602 42.6975L103.172 36.7265Z" fill="#3B9C2B"/>
<path d="M35.732 118.853L32.0591 124.678L33.672 125.696L37.3449 119.872L35.732 118.853Z" fill="#0CBC8B"/>
<path d="M128.149 132.847L125.073 139.008L126.779 139.861L129.855 133.7L128.149 132.847Z" fill="#0CBC8B"/>
<path d="M153.111 116.638L151.284 117.186L153.261 123.783L155.087 123.235L153.111 116.638Z" fill="#3B9C2B"/>
<path d="M19.4812 134.801L18.4189 136.387L24.1381 140.223L25.2004 138.637L19.4812 134.801Z" fill="#3B9C2B"/>
<path d="M80.5451 21.8887L78.8916 22.8398L82.3216 28.8107L83.9751 27.8595L80.5451 21.8887Z" fill="#0CBC8B"/>
</g>
<defs>
<clipPath id="clip0_579_2938">
<rect width="167" height="148" fill="white"/>
</clipPath>
</defs>
</svg>
