<svg width="19" height="16" viewBox="0 0 19 16" fill="none" xmlns="http://www.w3.org/2000/svg">
<path d="M12.25 1.58398V3.41732M12.25 7.08398V8.91732M12.25 12.584V14.4173M3.08333 1.58398C2.07081 1.58398 1.25 2.4048 1.25 3.41732V6.16732C2.26252 6.16732 3.08333 6.98813 3.08333 8.00065C3.08333 9.01317 2.26252 9.83398 1.25 9.83398V12.584C1.25 13.5965 2.07081 14.4173 3.08333 14.4173H15.9167C16.9292 14.4173 17.75 13.5965 17.75 12.584V9.83398C16.7375 9.83398 15.9167 9.01317 15.9167 8.00065C15.9167 6.98813 16.7375 6.16732 17.75 6.16732V3.41732C17.75 2.4048 16.9292 1.58398 15.9167 1.58398H3.08333Z" stroke="#94A3B8" stroke-width="1.6" stroke-linecap="round" stroke-linejoin="round"/>
</svg>
